<svg width="43" height="43" viewBox="0 0 43 43" fill="none" xmlns="http://www.w3.org/2000/svg">
<path d="M27.2711 8.82324C17.4978 8.82324 5.34082 18.9352 5.34082 27.3159C5.34082 31.6442 8.66549 33.8272 13.0566 33.8272C16.2808 33.8272 20.1826 32.6479 23.9464 30.3771V13.6534C22.9427 15.3722 18.2255 22.2975 14.4366 25.986C12.5045 27.8679 10.9739 28.6834 9.65662 28.6834C8.17619 28.6834 7.47363 27.6797 7.47363 26.1868C7.47363 19.412 18.8779 10.6048 26.4305 10.6048C29.5419 10.6048 31.5492 11.9848 31.5492 14.6696C31.5492 17.1286 29.8806 20.2149 27.0327 23.0628V28.2443C32.0009 24.3174 34.9742 19.3116 34.9742 15.2718C34.9742 11.0188 31.6621 8.82324 27.2711 8.82324Z" fill="#3643ba"/>
</svg>
