<?xml version="1.0" encoding="utf-8"?>
<!-- Generator: Adobe Illustrator 27.9.1, SVG Export Plug-In . SVG Version: 6.00 Build 0)  -->
<svg version="1.1" id="Layer_1" xmlns="http://www.w3.org/2000/svg" xmlns:xlink="http://www.w3.org/1999/xlink" x="0px" y="0px"
	 width="330.9px" height="98.7px" viewBox="0 0 330.9 98.7" style="enable-background:new 0 0 330.9 98.7;" xml:space="preserve">
<style type="text/css">
	.st0{fill-rule:evenodd;clip-rule:evenodd;fill:#3643BA;}
</style>
<path id="Logo_Decathlon" class="st0" d="M112.2,63.6h19.4v-6.2h-12v-5.2h10.7v-5.8h-10.7v-5.2h12v-6.2h-19.4V63.6z M155.7,51.3
	c-2.8,4.5-5.5,6.3-9.1,6.3c-4.6,0-7.2-3.2-7.2-8.8c0-5.3,2.4-7.9,6.2-7.9c2.5,0,4.5,1.1,5.2,4.8h7.4c-0.8-7-5.3-11.4-12.5-11.4
	c-8.3,0-13.8,5.9-13.8,14.9c0,9.1,5.5,15,14.5,15c5.9,0,9.9-2.5,12.5-5.8H169v5.2h7.3V34.9H166L155.7,51.3z M169,52.7h-6.5l6.5-10.6
	V52.7z M96.4,34.9H85.6v28.7h10.8c8.6,0,14.1-5.6,14.1-14.4S105,34.9,96.4,34.9z M96.3,57.4H93V41.1h3.3c4.3,0,6.7,3,6.7,8.1
	C103,54.4,100.6,57.4,96.3,57.4L96.3,57.4z M261.2,34.3c-8.7,0-14.5,5.9-14.5,14.9s5.8,14.9,14.5,14.9c8.7,0,14.5-5.9,14.5-14.9
	S269.9,34.3,261.2,34.3z M261.2,57.6c-4.3,0-7-2.9-7-8.3s2.7-8.3,7-8.3c4.3,0,7,2.9,7,8.3S265.5,57.6,261.2,57.6z M178.2,41.1h7.2
	v22.5h7.4V41.1h7.2v-6.2h-21.9V41.1L178.2,41.1z M294.6,34.9v15.8l-9.5-15.8h-7.7v28.7h7.1V47.2l9.9,16.5h7.3V34.9L294.6,34.9
	L294.6,34.9z M236.2,34.9h-7.4v28.7h18.5v-6.2h-11.1V34.9L236.2,34.9z M219.3,45.9h-10v-11H202v28.7h7.4V52.1h10v11.6h7.4V34.9h-7.4
	L219.3,45.9L219.3,45.9z M64.8,28.8c-16,0-36,16.6-36,30.4c0,7.1,5.5,10.7,12.7,10.7c5.3,0,11.7-1.9,17.9-5.7V36.7
	c-1.6,2.8-9.4,14.2-15.6,20.2c-3.2,3.1-5.7,4.4-7.8,4.4c-2.4,0-3.6-1.6-3.6-4.1c0-11.1,18.7-25.6,31.1-25.6c5.1,0,8.4,2.3,8.4,6.7
	c0,4-2.7,9.1-7.4,13.8v8.5c8.2-6.4,13-14.7,13-21.3C77.4,32.4,72,28.8,64.8,28.8z"/>
</svg>
